<?xml version="1.0" encoding="UTF-8"?>
<svg id="Layer_1" xmlns="http://www.w3.org/2000/svg" version="1.1" viewBox="0 0 285.3150766 59.9363409">
  <!-- Generator: Adobe Illustrator 29.8.2, SVG Export Plug-In . SVG Version: 2.1.1 Build 3)  -->
  <defs>
    <style>
      .st0 {
        fill: #e99f33;
      }

      .st1 {
        fill: #383274;
      }
    </style>
  </defs>
  <g>
    <path class="st1" d="M4.5554657,47.6199392l5.7769061-6.9323875c2.4391826,3.2736135,5.134805,4.9424752,8.3443086,4.9424752,4.1721543,0,6.3543963-2.5032926,6.3543963-7.4457678v-21.3746527h-15.7900764v-8.3443086h26.1242972v29.141471c0,11.1045418-5.5840754,16.5603973-16.1752369,16.5603973-6.0338467,0-11.3614824-2.3109628-14.634595-6.547227Z"/>
    <path class="st1" d="M34.5200482,36.130237c0-10.3983308,8.0237589-17.7799886,18.99958-17.7799886,10.9763219,0,18.93547,7.3816579,18.93547,17.7799886s-7.9591481,17.7799886-18.93547,17.7799886c-10.975821,0-18.99958-7.3816579-18.99958-17.7799886ZM62.313708,36.130237c0-5.9697367-3.7874947-9.5638999-8.7940798-9.5638999s-8.8576889,3.5941632-8.8576889,9.5638999c0,5.9692359,3.8511038,9.5638999,8.8576889,9.5638999s8.7940798-3.594664,8.7940798-9.5638999Z"/>
    <path class="st1" d="M109.3146038,36.130237c0,10.8476012-7.5098777,17.7799886-17.2024984,17.7799886-4.6214247,0-8.3443086-1.4760311-10.8476012-4.4932048v3.9798245h-9.5644008V5.7691747h10.0136712v16.753228c2.5674025-2.8243431,6.0974558-4.1721543,10.3983308-4.1721543,9.6926206,0,17.2024984,6.9323875,17.2024984,17.7799886ZM99.1727128,36.130237c0-5.9697367-3.7869938-9.5638999-8.793579-9.5638999s-8.7940798,3.5941632-8.7940798,9.5638999c0,5.9692359,3.7874947,9.5638999,8.7940798,9.5638999s8.793579-3.594664,8.793579-9.5638999Z"/>
  </g>
  <g>
    <path class="st0" d="M110.144527,48.9677504l3.5305541-7.8309283c3.7869938,2.7602332,9.4351792,4.6860355,14.8274257,4.6860355,6.1615657,0,8.6648583-2.0540222,8.6648583-4.8142554,0-8.4089194-26.1237964-2.6320133-26.1237964-19.3206305,0-7.6385985,6.1620665-13.9929948,18.9344683-13.9929948,5.6486862,0,11.4255923,1.3478112,15.5977466,3.9793236l-3.2095036,7.8955391c-4.1721543-2.3750727-8.4725285-3.5305541-12.452353-3.5305541-6.1615657,0-8.5366384,2.3109628-8.5366384,5.1353059,0,8.2801987,26.1247981,2.5674025,26.1247981,19.0636899,0,7.5098777-6.2266773,13.9288849-19.0646916,13.9288849-7.1242164,0-14.3130436-2.1181321-18.2928681-5.1994158Z"/>
    <path class="st0" d="M181.7382877,38.9545801h-26.1247981c.9626507,4.3003742,4.6209238,6.9323875,9.8849504,6.9323875,3.6582731,0,6.2897856-1.0913715,8.6648583-3.3377234l5.3281365,5.7769061c-3.2095036,3.658774-8.0237589,5.5840754-14.2504363,5.5840754-11.9384718,0-19.7047892-7.5098777-19.7047892-17.7799886,0-10.3342208,7.8945373-17.7799886,18.4215888-17.7799886,10.1413902,0,17.9728193,6.8036667,17.9728193,17.9082085,0,.7703209-.1282199,1.8616924-.1923298,2.6961232ZM155.4852697,33.1135641h17.0091669c-.706211-4.364985-3.9798245-7.1893281-8.4725285-7.1893281-4.5578156,0-7.8314291,2.7602332-8.5366384,7.1893281Z"/>
    <path class="st0" d="M216.3468511,33.6269444v19.7699009h-10.014172v-18.229259c0-5.5845763-2.5674025-8.1519788-6.9959965-8.1519788-4.8142554,0-8.2801987,2.952563-8.2801987,9.3069593v17.0742785h-10.0131703V18.8636287h9.5633991v4.0439344c2.6966241-2.952563,6.7395568-4.5573148,11.4255923-4.5573148,8.1519788,0,14.3145462,4.7496446,14.3145462,15.2766961Z"/>
    <path class="st0" d="M214.9553995,50.1873417l3.3377234-7.1888272c3.080282,1.9899122,7.7663175,3.3377234,12.0025817,3.3377234,4.6219256,0,6.3548972-1.2195913,6.3548972-3.1453936,0-5.6486862-20.8607715.1282199-20.8607715-13.6719443,0-6.547227,5.9051259-11.1686517,15.9824062-11.1686517,4.7501454,0,10.0131703,1.0908706,13.2867838,3.0166729l-3.3377234,7.1247173c-3.4018334-1.9253015-6.8036667-2.5674025-9.9490604-2.5674025-4.492704,0-6.4190071,1.412422-6.4190071,3.2095036,0,5.9051259,20.8617732.1923298,20.8617732,13.800665,0,6.4185063-5.9702376,10.975821-16.3039576,10.975821-5.841016,0-11.7471437-1.6047518-14.9556455-3.7228839Z"/>
    <path class="st0" d="M280.5672811,38.9545801h-26.1247981c.9626507,4.3003742,4.6209238,6.9323875,9.8849504,6.9323875,3.6582731,0,6.2897856-1.0913715,8.6648583-3.3377234l5.3281365,5.7769061c-3.2095036,3.658774-8.0237589,5.5840754-14.2504363,5.5840754-11.9384718,0-19.705791-7.5098777-19.705791-17.7799886,0-10.3342208,7.8955391-17.7799886,18.4225906-17.7799886,10.1413902,0,17.9728193,6.8036667,17.9728193,17.9082085,0,.7703209-.1282199,1.8616924-.1923298,2.6961232ZM254.3142632,33.1135641h17.0091669c-.706211-4.364985-3.9798245-7.1893281-8.4725285-7.1893281-4.5578156,0-7.8314291,2.7602332-8.5366384,7.1893281Z"/>
  </g>
</svg>